<?xml version="1.0" encoding="UTF-8"?><svg id="a" xmlns="http://www.w3.org/2000/svg" width="1311.87" height="1515.94" viewBox="0 0 1311.87 1515.94"><path d="M897.97,501.28l-172.94,299.53-105.15-182.11c-13.34-23.1-46.31-23.53-60.39-1.3-.26.43-.53.86-.78,1.3l-13.07,22.64-172.6,298.95-31.28,54.18-10.34,17.92c-6.31,10.92-17.97,17.66-30.59,17.66H35.37c-27.19,0-44.18-29.43-30.58-52.98l49.15-85.13,145.6-252.17,85.71-148.46,169.48-293.55,103.99-180.11c13.59-23.54,47.58-23.54,61.17,0l103.99,180.11,174.69,302.58c-.21.3-.41.61-.6.94Z" style="fill:#039be5;"/><path d="M1115.44,875.98l-88.96,154.07h-148.72c-12.62,0-24.27-6.74-30.58-17.66l-77.84-134.83-.4-.7,173.51-300.53.4.7,172.59,298.95Z" style="fill:#039be5;"/><path d="M1307.11,544.01l-191.67,331.97-88.96,154.07-239.36,414.58-31.03,53.74c-13.52,23.42-47.32,23.42-60.84,0l-31.03-53.74-247.49-428.67,172.6-298.94,105.92,183.47c13.53,23.42,47.33,23.42,60.85,0l13.24-22.93,173.51-300.53,39.35-68.15c6.27-10.87,17.87-17.57,30.42-17.57h264.06c27.05,0,43.95,29.28,30.43,52.7Z" style="fill:#00acc1;"/><path d="M559.49,617.4c-.26.43-.53.86-.78,1.3l-13.07,22.64-172.6,298.95-31.28,54.18c.28-.98.68-1.95,1.21-2.87l214.57-371.64c.55-.95,1.21-1.81,1.95-2.56Z" style="fill:#fff; fill-rule:evenodd;"/></svg>