<?xml version="1.0" encoding="UTF-8"?><svg id="a" xmlns="http://www.w3.org/2000/svg" width="1006.86" height="1096.71" viewBox="0 0 1006.86 1096.71"><path d="M997,75.67l-40.42,274.98-464.98,184.17s-20,7.97-28.99,13.37c-26.9,16.21-49.54,38.56-66.64,64.85-6.45,9.95-17.75,51.04-22.58,63.38l-9.66,45.73L15.14,858.35l15.37-89.62-.52.14,35.23-213.24c6.77-40.89,24.48-79.34,51.87-110.5,8.54-9.73,17.89-18.65,27.68-25.2,2.5-1.68,5.03-3.21,7.59-4.55.91-.48,1.84-.96,2.77-1.43l37.8-15L997,75.67Z" style="fill:#61b0ff;"/><polygon points="1006.86 0 999.09 42.92 659.61 176.34 687.91 .16 1006.86 0" style="fill:#00629f;"/><path d="M163.31,417.21c-.97.47-1.92.95-2.87,1.44l-.11-.29,2.98-1.15Z" style="fill:#61b0ff;"/><polygon points="474.91 1.44 433.69 255.11 97.38 389.31 165.73 1.44 474.91 1.44" style="fill:#00629f;"/><path d="M947.57,401.25l-77.55,461.08c-.13.68-.25,1.35-.39,2.02-36.26,189.52-226.06,232.37-450.26,232.37h-48.86c-131.21,0-274.7-3.23-339.94-53.4-21.3-19.71-31.91-52.61-30.42-90.41.64-16.26,3.53-33.43,8.76-50.84.15-.51.3-1.01.45-1.52l349.21-129.19-6.07,32.92c-.95,5.15-1.33,9.96-1.21,14.44v.02c.07,2.49.31,4.89.71,7.18h0c.46,2.85,1.18,5.55,2.11,8.09,9.18,25.02,39.56,35.78,77.25,35.78h10.92c50.23,0,107.08-18.91,115.65-65.34l42.35-265.98,347.29-137.22Z" style="fill:#00629f;"/></svg>